<mxfile host="app.diagrams.net" modified="2022-05-16T10:31:30.473Z" agent="5.0 (X11; Linux x86_64) AppleWebKit/537.36 (KHTML, like Gecko) Chrome/97.0.4692.71 Safari/537.36" etag="cbrWTxETdmiFKnoCIM3d" version="18.0.5" type="github">
  <diagram name="Page-1" id="e7e014a7-5840-1c2e-5031-d8a46d1fe8dd">
    <mxGraphModel dx="844" dy="765" grid="1" gridSize="10" guides="1" tooltips="1" connect="1" arrows="1" fold="1" page="1" pageScale="1" pageWidth="1169" pageHeight="827" background="none" math="0" shadow="0">
      <root>
        <mxCell id="0" />
        <mxCell id="1" parent="0" />
        <mxCell id="emphNPg4nT20dSHLnRxL-41" value="Guest" style="shape=umlActor;verticalLabelPosition=top;verticalAlign=bottom;fontFamily=Helvetica;labelPosition=left;align=right;labelBackgroundColor=none;labelBorderColor=default;html=1;whiteSpace=wrap;" vertex="1" parent="1">
          <mxGeometry x="60" y="160" width="60" height="100" as="geometry" />
        </mxCell>
        <mxCell id="emphNPg4nT20dSHLnRxL-49" value="System Boundary" style="text;html=1;strokeColor=none;fillColor=none;align=center;verticalAlign=middle;whiteSpace=wrap;rounded=0;glass=0;labelBackgroundColor=none;labelBorderColor=none;sketch=0;fontFamily=Helvetica;" vertex="1" parent="1">
          <mxGeometry x="380" y="40" width="110" height="40" as="geometry" />
        </mxCell>
        <mxCell id="emphNPg4nT20dSHLnRxL-51" value="" style="rounded=0;whiteSpace=wrap;html=1;glass=0;labelBackgroundColor=none;labelBorderColor=none;sketch=0;fontFamily=Helvetica;fillColor=none;direction=south;" vertex="1" parent="1">
          <mxGeometry x="160" y="30" width="580" height="1010" as="geometry" />
        </mxCell>
        <mxCell id="emphNPg4nT20dSHLnRxL-52" value="Student" style="shape=umlActor;verticalLabelPosition=bottom;verticalAlign=top;html=1;outlineConnect=0;glass=0;labelBackgroundColor=none;labelBorderColor=none;sketch=0;fontFamily=Helvetica;fillColor=none;" vertex="1" parent="1">
          <mxGeometry x="50" y="414" width="60" height="100" as="geometry" />
        </mxCell>
        <mxCell id="emphNPg4nT20dSHLnRxL-53" value="Tutor" style="shape=umlActor;verticalLabelPosition=bottom;verticalAlign=top;html=1;outlineConnect=0;glass=0;labelBackgroundColor=none;labelBorderColor=none;sketch=0;fontFamily=Helvetica;fillColor=none;" vertex="1" parent="1">
          <mxGeometry x="50" y="700" width="60" height="90" as="geometry" />
        </mxCell>
        <mxCell id="emphNPg4nT20dSHLnRxL-56" value="Student Register" style="ellipse;whiteSpace=wrap;html=1;glass=0;labelBackgroundColor=none;labelBorderColor=none;sketch=0;fontFamily=Helvetica;fillColor=none;" vertex="1" parent="1">
          <mxGeometry x="220" y="90" width="120" height="60" as="geometry" />
        </mxCell>
        <mxCell id="emphNPg4nT20dSHLnRxL-57" value="Tutor Register" style="ellipse;whiteSpace=wrap;html=1;glass=0;labelBackgroundColor=none;labelBorderColor=none;sketch=0;fontFamily=Helvetica;fillColor=none;" vertex="1" parent="1">
          <mxGeometry x="220" y="200" width="120" height="60" as="geometry" />
        </mxCell>
        <mxCell id="emphNPg4nT20dSHLnRxL-60" value="" style="endArrow=classic;html=1;rounded=0;fontFamily=Helvetica;entryX=0.042;entryY=0.683;entryDx=0;entryDy=0;entryPerimeter=0;exitX=0.733;exitY=0.36;exitDx=0;exitDy=0;exitPerimeter=0;" edge="1" parent="1" source="emphNPg4nT20dSHLnRxL-41" target="emphNPg4nT20dSHLnRxL-56">
          <mxGeometry width="50" height="50" relative="1" as="geometry">
            <mxPoint x="140" y="200" as="sourcePoint" />
            <mxPoint x="190" y="150" as="targetPoint" />
          </mxGeometry>
        </mxCell>
        <mxCell id="emphNPg4nT20dSHLnRxL-61" value="" style="endArrow=classic;html=1;rounded=0;fontFamily=Helvetica;entryX=0;entryY=0.5;entryDx=0;entryDy=0;exitX=0.667;exitY=0.36;exitDx=0;exitDy=0;exitPerimeter=0;" edge="1" parent="1" source="emphNPg4nT20dSHLnRxL-41" target="emphNPg4nT20dSHLnRxL-57">
          <mxGeometry width="50" height="50" relative="1" as="geometry">
            <mxPoint x="100" y="200" as="sourcePoint" />
            <mxPoint x="190" y="150" as="targetPoint" />
            <Array as="points" />
          </mxGeometry>
        </mxCell>
        <mxCell id="emphNPg4nT20dSHLnRxL-62" value="" style="endArrow=classic;html=1;rounded=0;fontFamily=Helvetica;entryX=0.75;entryY=0.1;entryDx=0;entryDy=0;entryPerimeter=0;" edge="1" parent="1" target="emphNPg4nT20dSHLnRxL-52">
          <mxGeometry width="50" height="50" relative="1" as="geometry">
            <mxPoint x="240" y="140" as="sourcePoint" />
            <mxPoint x="290" y="90" as="targetPoint" />
          </mxGeometry>
        </mxCell>
        <mxCell id="emphNPg4nT20dSHLnRxL-63" value="" style="endArrow=classic;html=1;rounded=0;fontFamily=Helvetica;exitX=0;exitY=1;exitDx=0;exitDy=0;entryX=0.667;entryY=0.111;entryDx=0;entryDy=0;entryPerimeter=0;" edge="1" parent="1" source="emphNPg4nT20dSHLnRxL-57" target="emphNPg4nT20dSHLnRxL-53">
          <mxGeometry width="50" height="50" relative="1" as="geometry">
            <mxPoint x="240" y="260" as="sourcePoint" />
            <mxPoint x="290" y="205" as="targetPoint" />
          </mxGeometry>
        </mxCell>
        <mxCell id="emphNPg4nT20dSHLnRxL-64" value="Login" style="ellipse;whiteSpace=wrap;html=1;glass=0;labelBackgroundColor=none;labelBorderColor=none;sketch=0;fontFamily=Helvetica;fillColor=none;" vertex="1" parent="1">
          <mxGeometry x="220" y="400" width="140" height="70" as="geometry" />
        </mxCell>
        <mxCell id="emphNPg4nT20dSHLnRxL-65" value="Change Infomation" style="ellipse;whiteSpace=wrap;html=1;glass=0;labelBackgroundColor=none;labelBorderColor=none;sketch=0;fontFamily=Helvetica;fillColor=none;" vertex="1" parent="1">
          <mxGeometry x="220" y="600" width="140" height="70" as="geometry" />
        </mxCell>
        <mxCell id="emphNPg4nT20dSHLnRxL-66" value="Verify Account Email" style="ellipse;whiteSpace=wrap;html=1;glass=0;labelBackgroundColor=none;labelBorderColor=none;sketch=0;fontFamily=Helvetica;fillColor=none;" vertex="1" parent="1">
          <mxGeometry x="220" y="500" width="140" height="70" as="geometry" />
        </mxCell>
        <mxCell id="emphNPg4nT20dSHLnRxL-67" value="Use Case" style="ellipse;whiteSpace=wrap;html=1;glass=0;labelBackgroundColor=none;labelBorderColor=none;sketch=0;fontFamily=Helvetica;fillColor=none;" vertex="1" parent="1">
          <mxGeometry x="220" y="700" width="140" height="70" as="geometry" />
        </mxCell>
      </root>
    </mxGraphModel>
  </diagram>
</mxfile>
